<svg xmlns="http://www.w3.org/2000/svg" viewBox="0 0 1600 1000" preserveAspectRatio="xMidYMid slice" aria-hidden="true">
  <defs>
    <radialGradient id="g" cx="70%" cy="60%" r="70%">
      <stop offset="0%" stop-color="#3f7d58" stop-opacity="0.18"/>
      <stop offset="100%" stop-color="#3f7d58" stop-opacity="0"/>
    </radialGradient>
  </defs>
  <rect width="1600" height="1000" fill="url(#g)"/>
  <g fill="none" stroke="#2d4a6b" stroke-opacity="0.32" stroke-width="1.2">
    <path d="M0,560 C200,520 360,610 540,560 C720,510 880,600 1080,540 C1280,480 1440,560 1600,520"/>
    <path d="M0,600 C200,560 360,650 540,600 C720,550 880,640 1080,580 C1280,520 1440,600 1600,560"/>
    <path d="M0,640 C200,600 360,690 540,640 C720,590 880,680 1080,620 C1280,560 1440,640 1600,600"/>
    <path d="M0,680 C200,640 360,730 540,680 C720,630 880,720 1080,660 C1280,600 1440,680 1600,640"/>
    <path d="M0,720 C200,680 360,770 540,720 C720,670 880,760 1080,700 C1280,640 1440,720 1600,680"/>
    <path d="M0,440 C200,400 360,490 540,440 C720,390 880,480 1080,420 C1280,360 1440,440 1600,400"/>
    <path d="M0,400 C200,360 360,450 540,400 C720,350 880,440 1080,380 C1280,320 1440,400 1600,360"/>
    <path d="M0,360 C200,320 360,410 540,360 C720,310 880,400 1080,340 C1280,280 1440,360 1600,320"/>
  </g>
</svg>
